<?xml version="1.0" encoding="utf-8"?>
<!-- Uploaded to: SVG Repo, www.svgrepo.com, Generator: SVG Repo Mixer Tools -->
<svg width="800px" height="800px" viewBox="0 0 1024 1024" class="icon"  version="1.1" xmlns="http://www.w3.org/2000/svg"><path d="M687.765 443.329c-3.302-1.631-6.711-2.74-10.156-3.472 3.314-5.64 6.503-11.447 9.514-17.513 10.506-21.207 1.832-46.909-19.366-57.404a42.404 42.404 0 0 0-3.944-1.714c1.414-2.415 2.897-4.741 4.247-7.231 11.287-20.793 3.587-46.813-17.206-58.104a43.027 43.027 0 0 0-8.715-3.533c1.474-2.082 2.974-4.047 4.426-6.23 13.077-19.71 7.686-46.297-12.024-59.373a42.764 42.764 0 0 0-15.486-6.356 216.821 216.821 0 0 0 5.05-11.085c9.169-21.773-1.023-46.844-22.75-56.066-5.806-5.89-13.249-10.298-21.888-12.339l-22.173-5.242s-0.638-0.146-1.714-0.338c-1.047-0.179-2.57-0.447-4.51-0.785a260.897 260.897 0 0 1-6.335-1.184c-2.309-0.469-4.772-1.021-7.14-1.684-2.35-0.636-8.579-4.985-9.657-9.602a31.047 31.047 0 0 1-0.333-4.201c-0.058-5.627 1.452-11.557 4.111-16.365 2.625-4.885 6.206-8.739 9.775-11.582 3.565-2.876 7.134-4.761 10.138-5.922 3.022-1.193 5.491-1.693 7.144-1.885 1.66-0.203 2.464-0.095 2.392-0.107a5.421 5.421 0 0 0 5.973-4.789c0.333-2.974-12.589-7.406-16.248-8.269-3.659-0.845-8.193-1.965-13.791-3.184-5.491-1.171-11.999-2.392-19.878-3.195-0.154-0.017-0.291-0.04-0.445-0.052-8.027-0.708-17.689-0.981-28.409 1.083a89.823 89.823 0 0 0-8.181 1.965c-2.789 0.782-5.527 1.819-8.34 2.942-2.732 1.21-5.527 2.524-8.217 4.059-1.332 0.766-2.689 1.569-3.98 2.433-1.328 0.857-2.6 1.774-3.856 2.709-10.19 7.549-18.289 17.95-23.529 28.954l-0.971 2.076-0.058 0.138c0.04-0.164-0.614 1.868-0.357 1.048l-0.072 0.164-0.161 0.316-0.309 0.642-0.624 1.291-1.048 2.879-0.981 2.897-0.815 2.528c-0.548 1.667-1.017 3.463-1.457 5.249-1.79 7.168-3.003 15.247-2.945 24.011-0.054 8.725 1.35 18.252 4.253 27.574 2.97 9.311 7.514 18.378 13.197 26.154 1.732 2.386 3.569 4.616 5.449 6.769-6.789-4.427-14.819-7.098-23.523-7.098-23.899 0-43.264 19.371-43.264 43.265 0 13.589 6.305 25.66 16.098 33.591-20.793 3.154-36.737 21.043-36.737 42.711 0 14.16 6.811 26.711 17.336 34.607-21.615 2.403-38.421 20.714-38.421 42.971 0 12.154 5.098 23.056 13.171 30.915-21.262 2.725-37.719 20.853-37.719 42.863 0 16.18 8.9 30.235 22.048 37.66-4.961 15.874 4.886 28.987 21.788 39.658H678.3c0 0.321-0.018 0.644-0.018 0.966 10.834-12.056 20.518-26.286 28.96-43.325 10.513-21.201 1.733-57.34-19.477-67.859z" fill="#FF3B30" /><path d="M383.216 528.828c-2.487 0-5.009-0.624-7.328-1.937-18.28-10.325-29.641-29.738-29.641-50.663 0-21.401 11.739-40.442 29.422-50.537-3.193-7.241-4.87-15.113-4.87-23.239 0-21.004 11.127-39.59 28.079-49.823-4.556-8.372-6.999-17.847-6.999-27.757 0-20.756 10.675-39.051 27.271-49.349a57.863 57.863 0 0 1-6.629-26.95c0-8.248 6.687-14.933 14.933-14.933s14.933 6.686 14.933 14.933c0 8.535 3.85 16.548 10.565 21.983l26.302 21.297-33.463 5.074c-13.707 2.078-24.047 14.091-24.047 27.945 0 8.984 4.141 17.242 11.367 22.66l30.158 22.623-37.471 4.166c-14.329 1.593-25.134 13.686-25.134 28.131 0 7.606 3.069 14.781 8.648 20.212l22.173 21.583-30.691 3.93c-14.072 1.801-24.682 13.861-24.682 28.051 0 10.173 5.542 19.622 14.46 24.661 7.181 4.054 9.713 13.165 5.658 20.348-2.74 4.86-7.801 7.591-13.014 7.591z" fill="#FFFFFF" /><path d="M687.765 443.329c-3.302-1.631-6.711-2.742-10.156-3.474 3.314-5.639 6.503-11.446 9.514-17.511 10.506-21.207 1.832-46.909-19.366-57.404a41.618 41.618 0 0 0-3.944-1.714c1.414-2.415 2.897-4.741 4.247-7.231 11.287-20.793 3.587-46.813-17.206-58.104a43.151 43.151 0 0 0-8.715-3.535c1.474-2.082 2.974-4.047 4.426-6.23 13.077-19.709 7.686-46.296-12.024-59.372a42.764 42.764 0 0 0-15.486-6.356 217.613 217.613 0 0 0 5.05-11.085c9.169-21.773-1.023-46.844-22.75-56.066-5.806-5.89-13.249-10.299-21.888-12.339l-22.173-5.242s-0.638-0.148-1.714-0.339c-1.047-0.178-2.57-0.445-4.51-0.786a255.788 255.788 0 0 1-6.335-1.183c-2.309-0.469-4.772-1.021-7.14-1.684-2.35-0.636-8.579-4.985-9.657-9.604a31.017 31.017 0 0 1-0.333-4.199c-0.058-5.628 1.452-11.558 4.111-16.367 2.625-4.883 6.206-8.737 9.775-11.581 3.565-2.876 7.134-4.761 10.138-5.922 3.022-1.193 5.491-1.695 7.144-1.886 1.66-0.202 2.464-0.094 2.392-0.106a5.423 5.423 0 0 0 5.973-4.789c0.333-2.974-12.589-7.406-16.248-8.269-3.659-0.845-8.193-1.965-13.791-3.184-5.491-1.172-11.999-2.392-19.878-3.195-0.154-0.017-0.291-0.04-0.445-0.052-8.027-0.708-17.689-0.982-28.409 1.083a90.145 90.145 0 0 0-8.181 1.964c-2.789 0.784-5.527 1.821-8.34 2.943-2.732 1.21-5.527 2.524-8.217 4.059-1.332 0.766-2.689 1.569-3.98 2.433-1.328 0.857-2.6 1.774-3.856 2.707-6.342 4.7-11.754 10.57-16.291 16.935 4.316-0.042 8.425 0.134 12.109 0.458 0.154 0.012 0.291 0.036 0.445 0.052 7.877 0.804 14.387 2.025 19.878 3.196 5.599 1.218 10.133 2.338 13.791 3.184 3.657 0.863 16.581 5.294 16.248 8.269a5.422 5.422 0 0 1-5.973 4.789c0.07 0.012-0.732-0.096-2.392 0.107-1.653 0.19-4.123 0.692-7.144 1.885-3.005 1.162-6.575 3.046-10.138 5.922-3.569 2.843-7.151 6.697-9.775 11.581-2.66 4.808-4.17 10.74-4.111 16.367 0.019 1.427 0.126 2.816 0.333 4.201 1.078 4.617 7.307 8.966 9.658 9.602 2.367 0.663 4.829 1.215 7.138 1.684 2.309 0.459 4.474 0.863 6.336 1.184 1.94 0.339 3.463 0.606 4.51 0.785 1.077 0.19 1.713 0.338 1.713 0.338l22.175 5.242c8.637 2.041 16.08 6.45 21.887 12.339 21.727 9.221 31.918 34.293 22.75 56.066a218.966 218.966 0 0 1-5.05 11.085 42.779 42.779 0 0 1 15.486 6.356c19.71 13.076 25.1 39.663 12.023 59.372-1.451 2.185-2.951 4.149-4.424 6.231a43.155 43.155 0 0 1 8.715 3.533c20.793 11.291 28.491 37.311 17.204 58.104-1.35 2.489-2.831 4.816-4.246 7.231a41.73 41.73 0 0 1 3.942 1.714c21.198 10.495 29.873 36.197 19.366 57.404-3.009 6.065-6.199 11.872-9.513 17.513 3.445 0.732 6.854 1.841 10.154 3.472 21.21 10.519 29.991 46.656 19.479 67.86-1.683 3.396-3.452 6.598-5.233 9.775H678.3c0 0.323-0.018 0.645-0.018 0.966 10.834-12.054 20.518-26.286 28.96-43.323 10.513-21.203 1.733-57.34-19.477-67.859z" fill="#030504" /><path d="M517.225 553.547H356.147c0 52.34 12.828 97.916 63.105 121.687l24.428 232.504h0.708c0 28.862 32.603 52.261 72.837 52.261 40.225 0 72.839-23.399 72.839-52.261h0.708l24.661-234.798c46.244-24.182 62.641-68.139 62.85-118.427 0-0.323 0.018-0.645 0.018-0.966H517.225z" fill="#FCB814" /><path d="M493.261 922.673h-13.197l-2.326-13.1-30.421-245.722c-41.832-12.093-59.88-40.012-59.88-91.431 0-8.246 6.687-14.933 14.933-14.933 8.248 0 14.933 6.687 14.933 14.933 0 46.481 15.715 58.291 46.652 64.805l10.435 2.195 32.616 263.485c0.539 1.516 0.838 3.142 0.838 4.834 0.001 8.246-6.335 14.934-14.583 14.934z" fill="#FFFFFF" /><path d="M629.426 553.546c0 0.323-0.018 0.645-0.018 0.966-0.208 50.289-16.605 94.245-62.85 118.427l-24.659 234.799h-0.708c0 22.681-20.26 41.797-48.405 49.027 7.672 1.97 15.82 3.235 24.438 3.235 40.225 0 72.839-23.399 72.839-52.262h0.708l24.661-234.799c46.244-24.182 62.641-68.137 62.85-118.427 0-0.321 0.018-0.644 0.018-0.966h-48.874z" fill="#030504" /><path d="M379.084 243.593c-0.029 0.24-0.051 0.481-0.075 0.724 0.39 0.238 0.814 0.421 1.196 0.669-0.386-0.443-0.739-0.942-1.121-1.393z" fill="#030504" /></svg>