<?xml version="1.0" encoding="iso-8859-1"?>
<!-- Uploaded to: SVG Repo, www.svgrepo.com, Generator: SVG Repo Mixer Tools -->
<!DOCTYPE svg PUBLIC "-//W3C//DTD SVG 1.1//EN" "http://www.w3.org/Graphics/SVG/1.1/DTD/svg11.dtd">
<svg height="800px" width="800px" version="1.1" id="Capa_1" xmlns="http://www.w3.org/2000/svg" xmlns:xlink="http://www.w3.org/1999/xlink" 
	 viewBox="0 0 128.63 128.63" xml:space="preserve">
<g>
	<g>
		<polygon style="fill-rule:evenodd;clip-rule:evenodd;fill:#F9AF46;" points="85.839,59.71 42.585,58.149 59.433,128.466 
			63.964,128.63 		"/>
		<g>
			<path style="fill:#FFD191;" d="M75.467,63.286l6.887,7.402l0.503-1.587l-7.39-7.944V63.286L75.467,63.286z M75.467,92.387v-0.904
				l0.215,0.23L75.467,92.387L75.467,92.387z M75.467,78.449v-2.13l3.803,4.087l-0.505,1.587L75.467,78.449z M73.715,59.272
				l-2.05-0.074l3.803,4.087v-2.129L73.715,59.272L73.715,59.272z M75.467,76.319v2.13L64.581,66.747v-2.13L75.467,76.319
				L75.467,76.319z M75.467,91.482v0.904l-0.29,0.913l-10.597-11.39v-2.128L75.467,91.482L75.467,91.482z M64.581,126.687v-1.418
				l0.335,0.361L64.581,126.687L64.581,126.687z M64.581,112.235v-2.129l3.924,4.218l-0.504,1.588L64.581,112.235L64.581,112.235z
				 M64.581,97.072v-2.129l7.512,8.075l-0.504,1.587L64.581,97.072z M64.581,64.617v2.13l-7.512-8.075l2.049,0.074L64.581,64.617
				L64.581,64.617z M64.581,79.781L44.522,58.219l-1.938-0.07l0.037,0.156l21.959,23.603V79.781L64.581,79.781z M64.581,94.943
				v2.129L47.515,78.728l-0.689-2.867L64.581,94.943L64.581,94.943z M64.581,110.106L51.721,96.284l0.687,2.867l12.173,13.084
				V110.106L64.581,110.106z M64.581,125.269v1.418l-0.168,0.53l-7.11-7.643l-0.688-2.868L64.581,125.269z"/>
			<path style="fill:#FFD191;" d="M84.282,59.654l-2.05-0.074L59.888,80.368v1.98L84.282,59.654L84.282,59.654z M59.888,124.666
				v-1.98l8.459-7.87l-0.891,2.811L59.888,124.666L59.888,124.666z M59.888,110.56v-1.98l14.813-13.78l-0.891,2.81L59.888,110.56
				L59.888,110.56z M59.888,96.454v-1.98l21.166-19.691l-0.892,2.811L59.888,96.454L59.888,96.454z M59.888,68.242v-1.98
				l7.748-7.208l2.05,0.074L59.888,68.242z M59.888,80.368l-7.297,6.79v1.98l7.297-6.791V80.368L59.888,80.368z M59.888,66.261v1.98
				l-7.297,6.789v-1.98L59.888,66.261L59.888,66.261z M59.888,94.474v1.98l-6.645,6.182l-0.39-1.619L59.888,94.474L59.888,94.474z
				 M59.888,108.58v1.98l-3.881,3.611l-0.388-1.619L59.888,108.58L59.888,108.58z M59.888,122.686v1.98l-1.116,1.041l-0.39-1.62
				L59.888,122.686L59.888,122.686z M52.592,60.925v-1.98l0.449-0.418L55.09,58.6L52.592,60.925z M52.592,87.158l-2.5,2.324
				l0.389,1.62l2.111-1.963V87.158L52.592,87.158z M52.592,58.945v1.98l-7.64,7.106l-0.387-1.619L52.592,58.945L52.592,58.945z
				 M52.592,73.051v1.98l-4.876,4.535l-0.387-1.62L52.592,73.051z"/>
		</g>
	</g>
	<g>
		<path style="fill-rule:evenodd;clip-rule:evenodd;fill:#FC5A29;" d="M43.151,35.767c-3.428,3.062-5.534,6.927-5.692,11.187
			c-0.392,10.553,11.195,18.444,26.029,18.96c14.831,0.517,27.292-6.536,27.684-17.09c0.159-4.259-1.655-8.261-4.849-11.554
			c0.355-1.046,0.563-2.139,0.605-3.264c0.175-4.729-2.606-9.073-7.147-12.114c-0.434-9.192-13.625-9.731-9.602-19.899
			c0.634-1.603-0.825-2.267-1.935-1.891c-8.137,2.772-16.969,9.939-17.778,20.288c-0.019,0.245-0.029,0.483-0.035,0.718
			c-4.538,2.718-7.471,6.76-7.643,11.36C42.747,33.593,42.875,34.697,43.151,35.767z"/>
		<path style="fill-rule:evenodd;clip-rule:evenodd;fill:#FF8A66;" d="M64.816,57.879c11.425-0.156,22.204-5.072,21.497-15.173
			c-0.169-2.406-0.874-4.401-1.821-0.421c-1.587,6.66-10.449,9.615-19.676,10.073V57.879L64.816,57.879z M64.816,41.724v-5.352
			c7.613-0.386,15.027-2.5,16.306-7.231c0.858-3.179,1.332-1.601,1.469,0.34C83.171,37.756,74.191,41.718,64.816,41.724
			L64.816,41.724z M64.816,26.153c4.182,0.048,7.593-1.532,7.276-4.95c-0.406-4.393-8.902-9.989-6.733-16.438
			c0.211-0.628-0.081-1.527-0.543-1.648V26.153z M43.245,51.033c4.863,4.625,13.383,6.957,21.571,6.846v-5.521
			c-8.211,0.408-16.711-1.162-20.632-3.859C42.731,47.498,41.15,49.039,43.245,51.033L43.245,51.033z M64.816,3.117v23.036
			c-4.082-0.045-8.899-1.642-11.702-4.597c-0.605-0.639-0.661-2.158,0.849-1.071c4.019,2.892,10.64,3.959,10.666-2.128
			c0.016-3.867-3.662-9.056-0.644-14.613C64.276,3.208,64.57,3.052,64.816,3.117L64.816,3.117z M64.816,36.373v5.352
			c-6.471,0.004-13.131-1.876-16.968-5.526c-1.691-1.608-0.483-2.695,0.758-2.045C51.712,35.78,58.337,36.703,64.816,36.373z"/>
	</g>
</g>
</svg>