<?xml version="1.0" encoding="iso-8859-1"?>
<!-- Uploaded to: SVG Repo, www.svgrepo.com, Generator: SVG Repo Mixer Tools -->
<svg height="800px" width="800px" version="1.1" id="Layer_1" xmlns="http://www.w3.org/2000/svg" xmlns:xlink="http://www.w3.org/1999/xlink" 
	 viewBox="0 0 268.675 268.675" xml:space="preserve">
<g>
	<path style="fill:#1D1D1B;" d="M180.082,10.484c21.218,13.944,29.456,45.249,22.343,68.717c0.121,0.241,0.161,0.522,0.121,0.844
		c-0.522,3.054-1.688,5.546-3.536,7.354c0.241,0.241,0.402,0.603,0.402,1.045c-0.241,26.161,1.125,52.925-0.763,79.045
		c-1.165,16.356-6.39,28.733-21.58,36.288c-0.281,0.161-0.603,0.161-0.844,0.04c-6.952,3.014-14.949,3.577-23.107,3.255
		c0.241,13.1,1.125,26.804-0.563,39.784c-0.884,7.113-3.376,13.743-9.444,18.043c-11.332,8.037-27.688,2.692-31.224-10.81
		c-0.121-0.522,0.563-0.804,0.884-0.442c-0.603-1.326-1.085-2.733-1.407-4.3c-2.853-14.306-3.496-29.979-1.768-44.445
		c-8.921-0.04-18.043-0.362-26.121-2.974c-0.241,0.402-0.763,0.683-1.406,0.522c-14.788-3.456-13.462-18.847-13.462-31.385
		c0-24.714,0.482-49.87,3.778-74.424c-0.402-0.321-0.844-0.603-1.246-0.965c-7.354-6.912-7.756-20.615-7.233-29.858
		C65.232,40.822,74.997,17.675,99.109,7.87C123.058-1.853,157.618-4.265,180.082,10.484z M199.974,78.558
		c4.26-27.125-4.099-58.149-31.546-69.28c-17.521-7.073-38.659-5.948-56.822-1.648c-25.438,6.028-38.739,22.785-43.119,48.062
		c-3.134,17.842-4.179,34.399,19.611,39.744c0.201,0.04,6.671-0.04,9.805,0c7.314-1.045,14.105,1.447,18.325,8.801
		c6.309,10.971,1.246,38.418,15.994,41.833c26.804,2.572,29.336-25.438,29.657-44.606c0.12-7.595,1.728-14.065,8.238-18.405
		c0.04-0.04,0.08-0.04,0.121-0.04c1.206-0.924,2.773-1.286,4.862-1.045c4.019,0.522,7.434,3.376,11.332,4.3
		c6.671,1.648,10.207-1.808,13.743-6.791C200.014,79.201,199.933,78.92,199.974,78.558z M180.001,198.673
		c24.955-23.71,16.115-77.036,16.195-109.345c-1.085,0.522-2.291,0.924-3.657,1.125c-3.134,0.482-6.309-0.201-9.243-1.286
		c-0.362-0.12-0.763-0.321-1.205-0.522c1.005,27.608,3.215,55.617,2.492,83.225C184.341,180.107,184.904,191.721,180.001,198.673z
		 M172.929,200.843c12.94-9.162,7.555-43.642,7.193-57.546c-0.482-18.445-1.165-36.89-1.648-55.336
		c-0.04-0.362,0.08-0.683,0.241-0.924c-2.411-1.125-5.063-2.13-7.153-1.808c-8.68,9.363-4.179,20.937-5.465,32.189
		c-0.683,5.988-2.572,12.016-5.666,17.199c-4.903,8.318-12.377,14.346-21.339,14.507c-7.917,3.175-15.672-2.331-19.128-9.725
		c-2.652-5.626-2.733-11.815-3.255-17.923c-0.482-5.666-0.764-11.855-4.059-16.757c-5.465-8.077-13.221-7.274-21.258-5.988
		c-0.04,0-0.08-0.04-0.161-0.04c-5.787,0.844-11.815,1.648-16.798-0.804c-0.241,14.186-1.286,28.331-1.728,42.517
		c-0.402,12.618-5.546,46.897,6.791,57.345c14.186,4.421,32.47,2.612,47.098,3.135C141.262,201.365,158.261,204.058,172.929,200.843
		z M149.661,241.551c0.764-11.493,0.322-23.147,0.161-34.64c-1.768-0.121-3.496-0.241-5.264-0.402
		c-0.04,13.583,1.487,28.612-0.924,41.874c-1.607,8.64-6.992,14.547-16.155,14.467c-4.139-0.04-7.555-1.206-10.207-3.255
		c4.541,4.782,10.408,7.635,17.923,5.666C146.647,262.247,148.978,251.517,149.661,241.551z M127.479,259.635
		c18.927-1.005,13.864-39.342,13.744-53.447c-5.063-0.482-10.006-1.005-14.628-1.205c-4.742-0.201-9.886-0.121-15.11-0.08
		C111.646,218.967,108.551,260.599,127.479,259.635z"/>
	<path style="fill:#7D4E24;" d="M168.428,9.278c27.447,11.131,35.806,42.155,31.546,69.28c-0.04,0.362,0.04,0.643,0.201,0.924
		c-3.536,4.983-7.073,8.439-13.743,6.791c-3.898-0.924-7.314-3.778-11.332-4.3c-2.09-0.241-3.657,0.121-4.862,1.045
		c-0.04,0-0.08,0-0.121,0.04c-6.51,4.34-8.118,10.81-8.238,18.405c-0.321,19.168-2.853,47.178-29.657,44.606
		c-14.748-3.416-9.685-30.863-15.994-41.833c-4.219-7.354-11.011-9.845-18.325-8.801c-3.134-0.04-9.604,0.04-9.805,0
		c-23.79-5.345-22.745-21.901-19.611-39.744c4.38-25.277,17.682-42.034,43.119-48.062C129.769,3.33,150.907,2.205,168.428,9.278z
		 M194.91,49.946c0.884-3.737,0.683-7.274-0.482-10.931c-0.321-0.924-1.688-0.522-1.447,0.402c0.844,3.295,0.964,6.791,0.482,10.127
		C193.303,50.508,194.669,50.91,194.91,49.946z M180.001,70.883c0.884-15.15-5.264-30.18-14.628-41.914
		c-5.546-6.992-20.213-22.866-30.461-18.767c-1.246,0.482-0.804,2.331,0.563,2.049c10.73-2.331,25.88,16.717,30.742,24.352
		c6.711,10.488,9.323,22.062,10.689,34.278C177.108,72.812,179.881,72.892,180.001,70.883z M160.27,39.658
		c0.442,0.964,1.969,0.281,1.648-0.683c-1.125-3.456-3.496-7.073-6.952-8.56c-0.884-0.362-1.849,0.643-1.085,1.366
		C156.453,34.233,158.703,36.403,160.27,39.658z M159.828,46.651c0.522,0.965,1.849,0.121,1.447-0.844
		c-1.286-2.853-3.255-5.184-5.747-7.113c-0.723-0.522-1.768,0.402-1.045,1.045C156.734,41.708,158.422,44.039,159.828,46.651z
		 M154.885,123.847c0.321-0.563-0.442-0.965-0.804-0.482c-1.728,2.492-3.777,4.702-6.229,6.55c-0.482,0.362-0.04,1.125,0.482,0.804
		C151.108,128.991,153.318,126.741,154.885,123.847z M154.483,131.402c0.402-0.603-0.522-1.326-1.005-0.764
		c-2.21,2.532-4.702,4.34-7.676,5.827c-0.563,0.281-0.161,1.045,0.362,0.924C149.621,136.626,152.635,134.376,154.483,131.402z
		 M134.953,99.816c0.442-0.924-0.884-1.728-1.406-0.844c-1.326,2.291-1.447,4.581-0.322,6.952c0.442,0.844,1.889,0.241,1.567-0.643
		C134.15,103.433,134.109,101.584,134.953,99.816z M120.888,65.859c0.04-1.527,0.04-3.014,0.04-4.541c0-0.764-1.165-0.764-1.165,0
		c0,1.527,0,3.014,0.04,4.541C119.843,66.543,120.848,66.543,120.888,65.859z M116.508,53.402c0.402-0.924-1.125-1.487-1.607-0.683
		c-1.688,2.612-2.09,5.867-1.366,8.801c0.241,0.924,1.808,0.764,1.688-0.201C114.981,58.465,115.423,56.014,116.508,53.402z
		 M111.485,17.315c0.884-0.281,0.522-1.527-0.362-1.366c-2.692,0.603-4.822,1.849-6.832,3.697c-0.482,0.482,0.201,1.406,0.764,0.965
		C106.984,19.123,109.194,18.038,111.485,17.315z M107.024,15.386c0.924-0.161,0.723-1.768-0.241-1.728
		c-3.335,0.201-6.671,1.527-8.841,4.179c-0.322,0.442,0.12,1.125,0.643,0.804C101.278,17.074,103.89,15.868,107.024,15.386z
		 M79.939,86.796c1.045,0.362,1.648-1.246,0.723-1.768c-2.893-1.648-5.023-4.019-5.787-7.354c-0.281-1.246-2.049-0.683-1.849,0.522
		C73.67,82.094,76.162,85.47,79.939,86.796z M74.233,84.666c0.522,0.241,1.005-0.482,0.482-0.844
		c-2.733-1.728-4.661-3.938-5.505-7.073c-0.161-0.563-1.005-0.362-0.884,0.241C69.169,80.206,71.179,83.139,74.233,84.666z"/>
	<path style="fill:#FFFBCC;" d="M196.196,89.328c-0.08,32.309,8.76,85.636-16.195,109.345c4.903-6.952,4.34-18.566,4.581-26.804
		c0.723-27.608-1.487-55.617-2.492-83.225c0.442,0.201,0.844,0.402,1.205,0.522c2.934,1.085,6.108,1.768,9.243,1.286
		C193.906,90.252,195.111,89.85,196.196,89.328z M194.388,148.2c0.04-0.804-1.326-1.045-1.487-0.201
		c-0.522,3.215-0.844,6.51-1.085,9.765c-0.08,1.165,1.688,1.125,1.808,0C193.986,154.589,194.307,151.415,194.388,148.2z
		 M189.726,113.198c0.121,0.563,0.965,0.321,0.884-0.281c-0.281-2.009-0.643-4.019-1.005-6.028
		c-0.121-0.563-0.964-0.321-0.884,0.281C189.003,109.18,189.324,111.189,189.726,113.198z M187.717,100.982
		c0.08-0.723-1.085-0.723-1.165,0c-0.362,3.014-0.723,6.028-0.924,9.042c-0.04,0.563,0.884,0.723,1.005,0.161
		C187.074,107.13,187.396,104.076,187.717,100.982z"/>
	<path style="fill:#1D1D1B;" d="M194.428,39.015c1.165,3.657,1.366,7.193,0.482,10.931c-0.241,0.965-1.607,0.563-1.447-0.402
		c0.482-3.335,0.362-6.832-0.482-10.127C192.74,38.493,194.107,38.091,194.428,39.015z"/>
	<path style="fill:#1D1D1B;" d="M192.901,147.999c0.161-0.844,1.527-0.603,1.487,0.201c-0.08,3.215-0.402,6.39-0.764,9.564
		c-0.121,1.125-1.889,1.165-1.808,0C192.057,154.509,192.379,151.214,192.901,147.999z"/>
	<path style="fill:#1D1D1B;" d="M190.61,112.917c0.08,0.603-0.764,0.844-0.884,0.281c-0.402-2.009-0.723-4.019-1.005-6.028
		c-0.08-0.603,0.763-0.844,0.884-0.281C189.967,108.898,190.329,110.908,190.61,112.917z"/>
	<path style="fill:#1D1D1B;" d="M186.552,100.982c0.08-0.723,1.246-0.723,1.165,0c-0.322,3.094-0.643,6.148-1.085,9.202
		c-0.12,0.563-1.045,0.402-1.005-0.161C185.828,107.01,186.19,103.996,186.552,100.982z"/>
	<path style="fill:#FFFBCC;" d="M180.122,143.297c0.362,13.904,5.746,48.384-7.193,57.546c-14.668,3.215-31.666,0.522-46.334,0.04
		c-14.627-0.522-32.912,1.286-47.098-3.135c-12.337-10.448-7.193-44.727-6.791-57.345c0.442-14.186,1.487-28.331,1.728-42.517
		c4.983,2.451,11.011,1.648,16.798,0.804c0.08,0,0.12,0.04,0.161,0.04c8.037-1.286,15.793-2.09,21.258,5.988
		c3.295,4.903,3.576,11.091,4.059,16.757c0.522,6.108,0.603,12.297,3.255,17.923c3.456,7.394,11.212,12.9,19.128,9.725
		c8.961-0.161,16.436-6.189,21.339-14.507c3.094-5.184,4.983-11.212,5.666-17.199c1.286-11.252-3.215-22.826,5.465-32.189
		c2.09-0.321,4.742,0.683,7.153,1.808c-0.161,0.241-0.281,0.563-0.241,0.924C178.957,106.407,179.64,124.852,180.122,143.297z
		 M176.344,170.021c0.683-2.733,0.804-5.425,0.603-8.238c-0.08-1.045-1.688-1.085-1.688,0c0.08,2.692-0.161,5.385-0.442,8.037
		C174.737,170.704,176.144,170.865,176.344,170.021z M171.884,174.28c1.447-2.411,1.688-4.943,1.045-7.716
		c-0.281-1.085-1.889-0.603-1.688,0.482c0.402,2.17,0.04,4.38-0.844,6.389C169.955,174.401,171.281,175.285,171.884,174.28z
		 M131.578,156.92c0.804-0.121,0.643-1.447-0.201-1.406c-2.934,0.161-5.907-0.201-8.64-1.407c-0.884-0.402-1.688,0.884-0.764,1.326
		C125.027,156.96,128.202,157.563,131.578,156.92z M127.479,152.098c0.563-0.201,0.322-1.165-0.281-0.965
		c-2.291,0.683-4.661-0.683-5.103-3.014c-0.08-0.402-0.764-0.322-0.723,0.121C121.732,151.133,124.625,153.143,127.479,152.098z
		 M100.876,149.727c0.04-1.688,0-3.335-0.04-5.023c-0.04-0.723-1.125-0.723-1.165,0c-0.04,1.688-0.08,3.336-0.04,5.023
		C99.63,150.571,100.876,150.571,100.876,149.727z M99.268,192.605c0.884-0.04,0.884-1.326,0-1.366
		c-1.688-0.08-3.376-0.08-5.063-0.04c-0.884,0.04-0.884,1.407,0,1.447C95.893,192.685,97.581,192.685,99.268,192.605z
		 M96.375,195.498c0.683-0.12,0.563-1.286-0.161-1.206c-2.773,0.241-5.305-0.603-7.153-2.733c-0.482-0.563-1.246,0.241-0.804,0.804
		C90.227,194.896,93.24,196.101,96.375,195.498z M79.618,127.102c0.04-0.683-1.045-0.683-1.085,0
		c-0.201,3.376-0.482,6.711-0.482,10.046c-0.04,0.683,0.924,0.643,1.005,0C79.376,133.813,79.497,130.478,79.618,127.102z
		 M76.885,121.798c0.201-1.005-1.206-1.366-1.527-0.402c-1.206,3.255-1.849,6.751-2.05,10.247c-0.04,0.924,1.527,1.165,1.648,0.241
		C75.478,128.469,76.162,125.133,76.885,121.798z"/>
	<path style="fill:#1D1D1B;" d="M165.374,28.969c9.363,11.734,15.512,26.764,14.628,41.914c-0.121,2.009-2.893,1.929-3.094,0
		c-1.366-12.217-3.978-23.79-10.689-34.278c-4.862-7.635-20.012-26.683-30.742-24.352c-1.366,0.281-1.808-1.567-0.563-2.049
		C145.16,6.103,159.828,21.977,165.374,28.969z"/>
	<path style="fill:#1D1D1B;" d="M176.947,161.783c0.201,2.813,0.08,5.505-0.603,8.238c-0.201,0.844-1.607,0.683-1.527-0.201
		c0.281-2.652,0.522-5.345,0.442-8.037C175.259,160.698,176.867,160.738,176.947,161.783z"/>
	<path style="fill:#1D1D1B;" d="M172.929,166.565c0.643,2.773,0.402,5.305-1.045,7.716c-0.603,1.005-1.929,0.121-1.487-0.844
		c0.884-2.009,1.246-4.219,0.844-6.389C171.04,165.962,172.647,165.48,172.929,166.565z"/>
	<path style="fill:#1D1D1B;" d="M161.918,38.975c0.321,0.964-1.206,1.648-1.648,0.683c-1.567-3.255-3.818-5.425-6.389-7.876
		c-0.764-0.723,0.201-1.728,1.085-1.366C158.422,31.903,160.793,35.519,161.918,38.975z"/>
	<path style="fill:#1D1D1B;" d="M161.275,45.807c0.402,0.965-0.924,1.808-1.447,0.844c-1.406-2.612-3.094-4.943-5.345-6.912
		c-0.723-0.643,0.322-1.567,1.045-1.045C158.02,40.623,159.989,42.954,161.275,45.807z"/>
	<path style="fill:#1D1D1B;" d="M154.082,123.365c0.362-0.482,1.125-0.08,0.804,0.482c-1.567,2.893-3.777,5.144-6.55,6.872
		c-0.522,0.321-0.965-0.442-0.482-0.804C150.304,128.067,152.354,125.857,154.082,123.365z"/>
	<path style="fill:#1D1D1B;" d="M153.479,130.639c0.482-0.563,1.406,0.161,1.005,0.764c-1.848,2.974-4.863,5.224-8.318,5.988
		c-0.522,0.121-0.924-0.643-0.362-0.924C148.777,134.979,151.269,133.17,153.479,130.639z"/>
	<path style="fill:#FDE9CC;" d="M149.822,206.911c0.161,11.493,0.603,23.147-0.161,34.64c-0.683,9.966-3.014,20.696-14.467,23.71
		c-7.515,1.969-13.382-0.884-17.923-5.666c2.652,2.049,6.068,3.215,10.207,3.255c9.162,0.08,14.547-5.827,16.155-14.467
		c2.411-13.261,0.884-28.291,0.924-41.874C146.326,206.67,148.054,206.791,149.822,206.911z"/>
	<path style="fill:#FDE9CC;" d="M141.222,206.188c0.121,14.105,5.184,52.442-13.744,53.447
		c-18.927,0.964-15.833-40.668-15.994-54.733c5.224-0.04,10.368-0.121,15.11,0.08C131.216,205.183,136.159,205.706,141.222,206.188z
		 M137.766,225.075c0.12,0.884,1.487,0.924,1.447,0c-0.12-2.692-0.281-5.385-0.643-8.037c-0.08-0.764-1.246-0.844-1.246,0
		C137.324,219.73,137.525,222.383,137.766,225.075z M135.235,227.325c0.683-2.612,0.764-5.104,0.442-7.756
		c-0.12-1.005-1.648-1.045-1.567,0c0.161,2.451,0,4.903-0.362,7.314C133.587,227.848,134.993,228.29,135.235,227.325z
		 M129.729,253.808c0.804,0.121,1.165-1.005,0.322-1.206c-2.25-0.603-4.139-1.688-5.747-3.335c-0.563-0.603-1.366,0.241-0.884,0.844
		C125.027,252.16,127.157,253.406,129.729,253.808z M125.188,255.415c0.844,0.161,1.165-0.965,0.362-1.286
		c-3.657-1.487-6.51-4.461-7.033-8.439c-0.161-0.924-1.607-1.005-1.527,0C117.392,250.231,120.527,254.531,125.188,255.415z"/>
	<path style="fill:#1D1D1B;" d="M139.213,225.075c0.04,0.924-1.326,0.884-1.447,0c-0.241-2.692-0.442-5.345-0.442-8.037
		c0-0.844,1.165-0.764,1.246,0C138.932,219.69,139.092,222.383,139.213,225.075z"/>
	<path style="fill:#1D1D1B;" d="M135.677,219.57c0.322,2.652,0.241,5.144-0.442,7.756c-0.241,0.964-1.648,0.522-1.487-0.442
		c0.362-2.411,0.522-4.862,0.362-7.314C134.029,218.525,135.556,218.565,135.677,219.57z"/>
	<path style="fill:#1D1D1B;" d="M133.547,98.972c0.522-0.884,1.848-0.08,1.406,0.844c-0.844,1.768-0.804,3.617-0.161,5.465
		c0.322,0.884-1.125,1.487-1.567,0.643C132.1,103.554,132.221,101.263,133.547,98.972z"/>
	<path style="fill:#1D1D1B;" d="M131.377,155.514c0.844-0.04,1.005,1.286,0.201,1.406c-3.376,0.643-6.55,0.04-9.604-1.487
		c-0.924-0.442-0.121-1.728,0.764-1.326C125.469,155.313,128.443,155.674,131.377,155.514z"/>
	<path style="fill:#1D1D1B;" d="M130.051,252.602c0.844,0.201,0.482,1.326-0.322,1.206c-2.572-0.402-4.702-1.648-6.309-3.697
		c-0.482-0.603,0.322-1.447,0.884-0.844C125.911,250.914,127.8,251.999,130.051,252.602z"/>
	<path style="fill:#1D1D1B;" d="M127.197,151.133c0.603-0.201,0.844,0.764,0.281,0.965c-2.853,1.045-5.746-0.965-6.108-3.858
		c-0.04-0.442,0.643-0.522,0.723-0.121C122.536,150.45,124.907,151.817,127.197,151.133z"/>
	<path style="fill:#1D1D1B;" d="M125.55,254.129c0.804,0.322,0.482,1.447-0.362,1.286c-4.662-0.884-7.796-5.184-8.198-9.725
		c-0.08-1.005,1.366-0.924,1.527,0C119.04,249.669,121.893,252.642,125.55,254.129z"/>
	<path style="fill:#1D1D1B;" d="M120.928,61.318c0,1.527,0,3.014-0.04,4.541c-0.04,0.683-1.045,0.683-1.085,0
		c-0.04-1.527-0.04-3.014-0.04-4.541C119.763,60.555,120.928,60.555,120.928,61.318z"/>
	<path style="fill:#1D1D1B;" d="M114.901,52.719c0.482-0.804,2.009-0.241,1.607,0.683c-1.085,2.612-1.527,5.063-1.286,7.917
		c0.121,0.964-1.447,1.125-1.688,0.201C112.811,58.586,113.213,55.331,114.901,52.719z"/>
	<path style="fill:#1D1D1B;" d="M111.123,15.949c0.884-0.161,1.246,1.085,0.362,1.366c-2.291,0.723-4.501,1.808-6.43,3.295
		c-0.563,0.442-1.246-0.482-0.764-0.965C106.301,17.797,108.431,16.552,111.123,15.949z"/>
	<path style="fill:#1D1D1B;" d="M106.783,13.658c0.965-0.04,1.165,1.567,0.241,1.728c-3.134,0.482-5.746,1.688-8.439,3.255
		c-0.522,0.322-0.964-0.362-0.643-0.804C100.112,15.185,103.448,13.859,106.783,13.658z"/>
	<path style="fill:#1D1D1B;" d="M100.836,144.704c0.04,1.688,0.08,3.336,0.04,5.023c0,0.844-1.246,0.844-1.246,0
		c-0.04-1.688,0-3.335,0.04-5.023C99.71,143.98,100.795,143.98,100.836,144.704z"/>
	<path style="fill:#1D1D1B;" d="M99.268,191.239c0.884,0.04,0.884,1.326,0,1.366c-1.688,0.08-3.376,0.08-5.063,0.04
		c-0.884-0.04-0.884-1.406,0-1.447C95.893,191.158,97.581,191.158,99.268,191.239z"/>
	<path style="fill:#1D1D1B;" d="M96.214,194.293c0.723-0.08,0.844,1.085,0.161,1.206c-3.134,0.603-6.148-0.603-8.118-3.134
		c-0.442-0.563,0.322-1.366,0.804-0.804C90.91,193.69,93.441,194.534,96.214,194.293z"/>
	<path style="fill:#1D1D1B;" d="M80.662,85.028c0.924,0.522,0.322,2.13-0.723,1.768c-3.778-1.326-6.269-4.702-6.912-8.6
		c-0.201-1.206,1.567-1.768,1.849-0.522C75.639,81.009,77.769,83.38,80.662,85.028z"/>
	<path style="fill:#1D1D1B;" d="M78.533,127.102c0.04-0.683,1.125-0.683,1.085,0c-0.121,3.376-0.241,6.711-0.563,10.046
		c-0.08,0.643-1.045,0.683-1.005,0C78.05,133.813,78.332,130.478,78.533,127.102z"/>
	<path style="fill:#1D1D1B;" d="M75.358,121.396c0.321-0.965,1.728-0.603,1.527,0.402c-0.723,3.335-1.407,6.671-1.929,10.087
		c-0.121,0.924-1.688,0.683-1.648-0.241C73.509,128.147,74.152,124.651,75.358,121.396z"/>
	<path style="fill:#1D1D1B;" d="M74.715,83.822c0.522,0.362,0.04,1.085-0.482,0.844c-3.054-1.527-5.063-4.461-5.907-7.675
		c-0.12-0.603,0.723-0.804,0.884-0.241C70.053,79.884,71.982,82.094,74.715,83.822z"/>
</g>
</svg>