<?xml version="1.0" encoding="iso-8859-1"?>
<!-- Uploaded to: SVG Repo, www.svgrepo.com, Generator: SVG Repo Mixer Tools -->
<svg height="800px" width="800px" version="1.1" id="Layer_1" xmlns="http://www.w3.org/2000/svg" xmlns:xlink="http://www.w3.org/1999/xlink" 
	 viewBox="0 0 511.988 511.988" xml:space="preserve">
<path style="fill:#434A54;" d="M277.338,223.995c0,11.781-9.562,21.327-21.344,21.327c-11.782,0-21.336-9.546-21.336-21.327
	c0-11.781,9.555-21.328,21.336-21.328C267.775,202.667,277.338,212.214,277.338,223.995z"/>
<path style="fill:#E6E9ED;" d="M42.929,479.989c-0.18-3.531,426.31-3.531,426.122,0h21.359c0.172-3.531,0.234-7.094,0.234-10.672
	c0-129.591-105.061-234.651-234.65-234.651c-129.599,0-234.659,105.06-234.659,234.651c0,3.578,0.086,7.141,0.242,10.672H42.929z"/>
<g style="opacity:0.3;">
	<path style="fill:#FFFFFF;" d="M255.994,234.666c-3.578,0-7.133,0.078-10.664,0.234c124.646,5.578,224.002,108.404,224.002,234.417
		c0,3.578-0.094,7.141-0.25,10.672h21.328c0.172-3.531,0.234-7.094,0.234-10.672C490.644,339.726,385.584,234.666,255.994,234.666z"
		/>
</g>
<g>
	<path style="fill:#FFCE54;" d="M333.023,188.027c-0.5-0.625-5.016-6.375-7.344-14.468c-3.422-11.953-0.562-23.328,8.094-31.999
		c3.172-3.188,3.969-6.406,2.703-10.766c-1.094-3.719-3.344-6.625-3.359-6.656l16.422-13.609c0.516,0.609,5.062,6.265,7.422,14.281
		c3.438,11.812,0.594,23.109-8.078,31.812c-3.203,3.203-4,6.5-2.703,11.062c1.125,3.859,3.438,6.922,3.453,6.953L333.023,188.027z"
		/>
	<path style="fill:#FFCE54;" d="M351.992,117.325c0,5.891-4.781,10.672-10.656,10.672c-5.906,0-10.688-4.781-10.688-10.672
		c0-5.89,4.781-10.656,10.688-10.656C347.211,106.669,351.992,111.435,351.992,117.325z"/>
	<path style="fill:#FFCE54;" d="M351.992,181.324c0,5.906-4.781,10.671-10.656,10.671c-5.906,0-10.688-4.766-10.688-10.671
		c0-5.891,4.781-10.656,10.688-10.656C347.211,170.668,351.992,175.433,351.992,181.324z"/>
	<path style="fill:#FFCE54;" d="M247.502,145.122c-0.688-0.906-6.82-9.188-9.992-21.125c-4.531-17.031-0.898-32.843,10.492-45.733
		c6.5-7.343,8.461-15.702,6.008-25.53c-2.047-8.219-6.492-14.266-6.539-14.312l17.016-12.875c0.688,0.906,6.82,9.187,9.992,21.125
		c4.531,17.031,0.891,32.843-10.492,45.733c-6.5,7.344-8.461,15.703-6.008,25.53c2.047,8.219,6.492,14.25,6.539,14.312
		L247.502,145.122z"/>
	<path style="fill:#FFCE54;" d="M266.658,31.999c0,5.89-4.773,10.671-10.664,10.671c-5.891,0-10.664-4.781-10.664-10.671
		c0-5.891,4.773-10.671,10.664-10.671C261.885,21.328,266.658,26.109,266.658,31.999z"/>
	<path style="fill:#FFCE54;" d="M266.658,138.669c0,5.891-4.773,10.656-10.664,10.656c-5.891,0-10.664-4.765-10.664-10.656
		s4.773-10.672,10.664-10.672C261.885,127.997,266.658,132.778,266.658,138.669z"/>
	<path style="fill:#FFCE54;" d="M162.355,188.027c-0.5-0.625-5.008-6.375-7.336-14.468c-3.43-11.953-0.555-23.328,8.086-31.999
		c3.172-3.188,3.984-6.406,2.703-10.766c-1.086-3.719-3.336-6.625-3.359-6.656l16.43-13.609c0.508,0.609,5.062,6.265,7.405,14.281
		c3.461,11.812,0.594,23.109-8.062,31.812c-3.195,3.203-4,6.5-2.695,11.062c1.109,3.859,3.414,6.922,3.438,6.953L162.355,188.027z"
		/>
	<path style="fill:#FFCE54;" d="M181.332,117.325c0,5.891-4.781,10.672-10.672,10.672s-10.664-4.781-10.664-10.672
		c0-5.89,4.773-10.656,10.664-10.656S181.332,111.435,181.332,117.325z"/>
	<path style="fill:#FFCE54;" d="M181.332,181.324c0,5.906-4.781,10.671-10.672,10.671s-10.664-4.766-10.664-10.671
		c0-5.891,4.773-10.656,10.664-10.656S181.332,175.433,181.332,181.324z"/>
</g>
<path style="fill:#CCD1D9;" d="M511.988,479.989c0-5.891-4.781-10.656-10.656-10.672l0,0H10.664l0,0l0,0
	C4.773,469.317,0,474.098,0,479.989c0,5.89,4.773,10.671,10.664,10.671l0,0l0,0h490.668l0,0
	C507.207,490.66,511.988,485.879,511.988,479.989z"/>
</svg>