<?xml version="1.0" encoding="iso-8859-1"?>
<!-- Uploaded to: SVG Repo, www.svgrepo.com, Generator: SVG Repo Mixer Tools -->
<svg fill="#000000" height="800px" width="800px" version="1.1" id="Layer_1" xmlns="http://www.w3.org/2000/svg" xmlns:xlink="http://www.w3.org/1999/xlink" 
	 viewBox="0 0 512 512" xml:space="preserve">
<g>
	<g>
		<path d="M497.03,341.254h-18.026c-6.916-102.892-83.757-186.932-183.289-204.852c1.06-3.652,1.638-7.506,1.638-11.497
			c0-22.801-18.55-41.351-41.352-41.351s-41.352,18.55-41.352,41.351c0,3.989,0.579,7.844,1.638,11.497
			c-99.533,17.921-176.373,101.96-183.289,204.852H14.97H0v33.391h14.97v53.8H497.03v-53.8H512v-33.391H497.03z M256,116.946
			c4.389,0,7.961,3.571,7.961,7.959s-3.572,7.96-7.961,7.96c-4.389,0-7.96-3.572-7.96-7.96S251.611,116.946,256,116.946z
			 M256,166.257c99.745,0,181.792,77.206,189.534,174.997H66.466C74.208,243.463,156.255,166.257,256,166.257z M463.638,395.054
			L463.638,395.054H48.362v-20.409h415.277V395.054z"/>
	</g>
</g>
</svg>